<?xml version="1.0" standalone="no"?>
<!DOCTYPE svg PUBLIC "-//W3C//DTD SVG 20010904//EN"
 "http://www.w3.org/TR/2001/REC-SVG-20010904/DTD/svg10.dtd">
<svg version="1.0" xmlns="http://www.w3.org/2000/svg"
 width="1389.000000pt" height="157.000000pt" viewBox="0 0 1389.000000 157.000000"
 preserveAspectRatio="xMidYMid meet">

<g transform="translate(0.000000,157.000000) scale(0.100000,-0.100000)"
fill="#000000" stroke="none">
<path d="M7385 1560 c-225 -36 -447 -197 -550 -400 -156 -311 -84 -744 161
-959 252 -221 600 -262 895 -104 l66 36 7 60 c3 33 6 94 6 135 l0 74 -43 -35
c-57 -47 -157 -101 -234 -126 -86 -29 -244 -29 -336 -1 -126 39 -244 140 -306
264 -46 91 -64 189 -58 321 7 169 57 286 169 396 187 184 493 196 716 28 36
-27 54 -36 57 -27 2 7 6 60 7 118 l3 105 -85 42 c-47 24 -112 50 -145 58 -74
20 -250 27 -330 15z"/>
<path d="M5490 1542 c-206 -58 -413 -237 -491 -424 -35 -85 -69 -238 -69 -312
0 -84 19 -216 41 -286 70 -217 250 -401 467 -478 72 -25 88 -27 247 -27 189 0
224 7 345 72 189 102 313 243 373 428 61 190 60 360 -3 551 -44 132 -164 279
-301 370 -147 97 -209 116 -394 120 -123 3 -162 1 -215 -14z m333 -208 c88
-22 133 -49 205 -118 114 -109 172 -258 172 -446 0 -173 -45 -287 -158 -403
-75 -77 -135 -112 -237 -138 -89 -24 -161 -24 -250 0 -96 25 -129 44 -209 120
-186 180 -231 484 -107 729 29 57 160 195 211 222 88 48 261 63 373 34z"/>
<path d="M10140 809 c-201 -407 -366 -745 -368 -750 -2 -5 46 -9 108 -9 l111
0 66 135 65 135 371 -2 370 -3 61 -132 61 -133 118 0 c74 0 117 4 115 10 -10
30 -704 1490 -708 1490 -3 0 -170 -333 -370 -741z m500 1 c73 -162 134 -301
137 -307 4 -10 -56 -13 -281 -13 -168 0 -286 4 -286 9 0 22 284 621 291 614 4
-4 67 -141 139 -303z"/>
<path d="M12811 828 c-195 -398 -360 -735 -368 -750 l-14 -28 114 0 113 0 64
135 63 135 369 0 369 0 64 -135 64 -135 116 0 c93 0 116 3 113 14 -5 22 -703
1485 -708 1486 -3 0 -165 -325 -359 -722z m493 -27 c75 -168 134 -306 132
-308 -1 -2 -131 -2 -288 -1 l-285 3 113 245 c62 135 127 276 145 313 17 38 35
65 39 60 5 -4 69 -145 144 -312z"/>
<path d="M3200 1536 c0 -4 -67 -338 -150 -741 -82 -402 -150 -735 -150 -739 0
-3 46 -6 103 -6 l102 0 89 445 c49 246 92 442 96 438 4 -4 112 -214 240 -466
128 -252 236 -455 240 -450 4 4 94 188 200 408 249 517 252 523 258 505 3 -8
44 -208 92 -445 l86 -430 111 -3 111 -3 -144 708 c-78 389 -147 726 -152 748
-9 40 -9 40 -285 -512 -153 -304 -279 -553 -282 -553 -3 0 -101 192 -219 428
-236 471 -345 682 -346 668z"/>
<path d="M0 785 l0 -735 263 0 c236 0 274 3 385 25 221 43 390 154 510 334 47
70 63 105 80 174 24 93 28 221 13 355 -16 131 -119 303 -232 387 -207 152
-377 194 -786 195 l-233 0 0 -735z m582 520 c115 -24 222 -79 302 -155 104
-100 146 -201 146 -357 0 -157 -41 -266 -138 -366 -126 -129 -229 -166 -489
-174 l-173 -6 0 537 0 536 139 0 c87 0 167 -6 213 -15z"/>
<path d="M1690 785 l0 -735 435 0 435 0 0 95 0 95 -325 0 -325 0 0 245 0 245
275 0 275 0 0 90 0 90 -275 0 -275 0 0 210 0 210 320 0 320 0 0 95 0 95 -430
0 -430 0 0 -735z"/>
<path d="M11190 1425 l0 -95 260 0 260 0 0 -640 0 -640 115 0 115 0 0 640 0
640 265 0 265 0 0 95 0 95 -640 0 -640 0 0 -95z"/>
<path d="M8390 780 l0 -730 110 0 110 0 0 315 0 315 83 0 84 0 237 -315 237
-315 130 0 c101 0 129 3 123 13 -4 6 -115 153 -246 325 -131 172 -238 314
-238 316 0 2 19 8 43 15 123 37 246 143 286 249 46 120 36 216 -35 327 -63 99
-142 155 -271 190 -84 24 -102 25 -370 25 l-283 0 0 -730z m484 555 c107 -17
188 -55 230 -108 27 -34 31 -48 34 -113 7 -131 -42 -207 -164 -254 -49 -19
-84 -24 -211 -28 l-153 -4 0 254 c0 140 3 258 7 261 11 12 165 7 257 -8z"/>
</g>
</svg>
